# xmcd CD database file
#
# Track frame offsets:
#	150
#	22560
#	39592
#	62040
#
# Disc length: 1050 seconds
#
# Revision: 2
# Processed by: cddbd v1.5.2PL0 Copyright (c) Steve Scherf et al.
# Submitted via: CDex 1.70beta2
#
DISCID=24041804
DTITLE=smap - そっと　きゅっと
DYEAR=2009
DGENRE=Blues
TTITLE0=そっと　きゅっと
TTITLE1=スーパースター★
TTITLE2=そっと　きゅっと(back track)
TTITLE3=スーパースター★(back track)
EXTD=YEAR: 2009
EXTT0=
EXTT1=
EXTT2=
EXTT3=
PLAYORDER=
